<svg xmlns="http://www.w3.org/2000/svg" enable-background="new 0 0 1024 1024" viewBox="0 0 1024 1024"><path d="M63.2,161c48,0,96,0,144,0c6.9,0,13.8,0,20.7,0c-9.6-7.3-19.3-14.7-28.9-22c4.8,14.6,9.6,29.2,14.4,43.9
				c11.6,35.1,23.1,70.2,34.7,105.3C262,330.4,276,372.7,289.9,415c12.1,36.7,24.2,73.4,36.2,110.1c5.9,17.8,11.5,35.7,17.6,53.4
				c0.1,0.3,0.2,0.5,0.3,0.8c4.9,14.9,21,26.1,36.9,21c14.8-4.8,26.2-20.9,21-36.9c-4.8-14.6-9.6-29.2-14.4-43.9
				c-11.6-35.1-23.1-70.2-34.7-105.3c-13.9-42.3-27.8-84.6-41.8-126.9c-12.1-36.7-24.2-73.4-36.2-110.1
				c-5.9-17.8-11.4-35.7-17.6-53.4c-0.1-0.3-0.2-0.5-0.3-0.8c-4.2-12.6-15.3-22-28.9-22c-48,0-96,0-144,0c-6.9,0-13.8,0-20.7,0
				c-15.7,0-30.7,13.8-30,30C33.9,147.3,46.4,161,63.2,161L63.2,161z"/><path d="M347,556.1c-16.2,28.9-32.5,57.7-48.7,86.6c-2.3,4.2-4.7,8.3-7,12.5c-11.1,19.7,2.9,45.1,25.9,45.1
				c17.3,0,34.6,0,51.9,0c41.6,0,83.1,0,124.7,0c50.3,0,100.6,0,150.9,0c43.5,0,87,0,130.5,0c21.1,0,42.3,0.4,63.5,0
				c0.3,0,0.6,0,0.9,0c15.7,0,30.7-13.8,30-30c-0.7-16.3-13.2-30-30-30c-17.3,0-34.6,0-51.9,0c-41.6,0-83.1,0-124.7,0
				c-50.3,0-100.6,0-150.9,0c-43.5,0-87,0-130.5,0c-21.1,0-42.4-0.6-63.5,0c-0.3,0-0.6,0-0.9,0c8.6,15,17.3,30.1,25.9,45.1
				c16.2-28.9,32.5-57.7,48.7-86.6c2.3-4.2,4.7-8.3,7-12.5c7.7-13.7,3.7-33.4-10.8-41C373.8,537.9,355.2,541.5,347,556.1L347,556.1z
				"/><circle cx="746.5" cy="824.9" r="68.1"/><path d="M658.4,824.9c0.4,37.5,23.9,69.9,58.8,83c33,12.4,73.6,1.6,96.1-25.6c23.9-29,28.7-70.3,8.8-102.9
				c-19.6-32.2-57.2-47.9-93.9-40.7C687.7,746.6,658.8,784.3,658.4,824.9c-0.1,10.5,9.3,20.5,20,20c10.9-0.5,19.9-8.8,20-20
				c0-1.6,0.1-3.3,0.2-4.9c0-0.7,0.1-1.4,0.2-2.1c0.3-4-0.1,1.3-0.2,1.2c-0.7-0.4,2.1-9,2.4-9.8c0.3-0.8,0.9-4.2,1.6-4.4
				c0.2-0.1-1.8,3.7-0.7,1.7c0.4-0.8,0.8-1.6,1.1-2.4c1.5-3,3.3-5.7,5.1-8.5c1.9-2.9-2.7,3.1,0.5-0.6c1-1.1,2-2.3,3.1-3.4
				c1.1-1.1,2.2-2.2,3.3-3.2c0.5-0.4,1-0.9,1.5-1.3c0.7-0.6,3.6-2,1-0.9c-2.2,0.9-0.6,0.5,0.1,0c0.7-0.5,1.4-1,2.2-1.5
				c1.1-0.7,2.2-1.4,3.4-2c1.5-0.9,3.1-1.6,4.7-2.4c0.5-0.3,2.6-1.3,0-0.1c-3,1.4,1-0.3,1.3-0.4c2.7-1,5.6-1.8,8.4-2.4
				c0.9-0.2,1.8-0.3,2.7-0.5c2.2-0.5-1.9,0.2-1.9,0.2c1.8,0,3.7-0.4,5.5-0.4c3.3-0.1,6.5,0,9.8,0.3c3.7,0.3-3.8-0.7,0.8,0.2
				c1.8,0.3,3.5,0.8,5.3,1.2c1.5,0.4,3,0.9,4.5,1.4c0.4,0.1,2.4,0.8,2.5,0.9c0.1,0.3-3.7-1.9-1.7-0.7c2.8,1.7,5.9,3,8.7,4.8
				c0.7,0.5,1.4,1,2.2,1.5c0.7,0.5,2.2,0.9,0.1,0c-2-0.8-0.7-0.6,0,0.1c0.7,0.6,1.3,1.1,2,1.7c2.5,2.2,4.6,4.6,6.8,7
				c3,3.3-1.4-2.3,0.5,0.6c0.8,1.3,1.7,2.5,2.5,3.8c0.8,1.3,1.6,2.7,2.3,4c0.3,0.6,0.6,1.2,0.9,1.8c1.9,3.6,0.4-0.3-0.1-0.5
				c1.2,0.4,2.5,7.6,2.9,8.9c0.3,1.3,0.6,2.7,0.9,4c0.8,3.8-0.1-1.2-0.1-1.3c0.5,0.5,0.3,2.8,0.3,3.4c0.2,3,0.2,6.1,0,9.1
				c-0.1,0.9-0.2,1.8-0.2,2.8c-0.1,2-1.2,1.7,0.2-1.2c-0.7,1.5-0.7,3.7-1.1,5.3c-0.7,2.8-1.8,5.5-2.6,8.3c-0.8,2.5,1.8-3.4,0.5-1.1
				c-0.3,0.5-0.6,1.2-0.8,1.8c-0.8,1.6-1.6,3.1-2.5,4.6c-0.8,1.3-1.6,2.6-2.5,3.9c-2.7,4.1,1.9-2-0.4,0.7c-2.2,2.5-4.3,4.9-6.8,7.1
				c-0.4,0.4-2.8,3-3.5,3c0,0,4.1-2.8,0.9-0.8c-0.6,0.4-1.1,0.7-1.6,1.1c-2.8,1.8-5.7,3.3-8.6,4.8c-3.1,1.6,3.6-1.2-0.7,0.3
				c-1.5,0.5-2.9,1-4.4,1.5c-1.5,0.4-3,0.8-4.6,1.2c-0.7,0.1-1.3,0.3-2,0.4c-4.4,1,3.2-0.2,0.6,0c-3.3,0.3-6.5,0.5-9.8,0.4
				c-1.6,0-3.2-0.2-4.9-0.3c-0.6,0-3-0.3-0.1,0c3.3,0.3-0.7-0.2-1.4-0.3c-3.5-0.7-6.9-1.8-10.3-3c-0.6-0.2-2.6-1.2-0.1,0
				c2.9,1.4-0.6-0.3-1.2-0.6c-1.6-0.8-3.1-1.6-4.6-2.5c-1.5-0.9-2.9-1.9-4.4-2.9c-2.4-1.5,0.3,0.8,0.9,0.8c-0.4,0-1.7-1.4-2-1.7
				c-2.6-2.3-5.1-4.7-7.4-7.4c0,0-1.7-1.7-1.7-2c0,0.4,2.4,3.4,0.8,0.9c-1-1.5-2-2.9-2.9-4.4c-1-1.7-1.9-3.5-2.8-5.2
				c-2.1-4.1,1,3.2-0.6-1.3c-1.2-3.4-2.2-6.8-2.9-10.4c-0.1-0.6-0.1-1.5-0.4-2c1.5,3.3,0.3,2.8,0.1,0.5c-0.2-2.1-0.3-4.2-0.3-6.3
				c-0.1-10.5-9.1-20.5-20-20C667.7,805.3,658.3,813.7,658.4,824.9z"/><circle cx="401.8" cy="824.9" r="68.1"/><path d="M313.7,824.9c0.4,37.5,23.9,69.9,58.8,83c33,12.4,73.6,1.6,96.1-25.6c23.9-29,28.7-70.3,8.8-102.9
				c-19.6-32.2-57.2-47.9-93.9-40.7C342.9,746.6,314.1,784.3,313.7,824.9c-0.1,10.5,9.3,20.5,20,20c10.9-0.5,19.9-8.8,20-20
				c0-1.6,0.1-3.3,0.2-4.9c0-0.7,0.1-1.4,0.2-2.1c0.3-4-0.1,1.3-0.2,1.2c-0.7-0.4,2.1-9,2.4-9.8c0.3-0.8,0.9-4.2,1.6-4.4
				c0.2-0.1-1.8,3.7-0.7,1.7c0.4-0.8,0.8-1.6,1.1-2.4c1.5-3,3.3-5.7,5.1-8.5c1.9-2.9-2.7,3.1,0.5-0.6c1-1.1,2-2.3,3.1-3.4
				c1.1-1.1,2.2-2.2,3.3-3.2c0.5-0.4,1-0.9,1.5-1.3c0.7-0.6,3.6-2,1-0.9c-2.2,0.9-0.6,0.5,0.1,0c0.7-0.5,1.4-1,2.2-1.5
				c1.1-0.7,2.2-1.4,3.4-2c1.5-0.9,3.1-1.6,4.7-2.4c0.5-0.3,2.6-1.3,0-0.1c-3,1.4,1-0.3,1.3-0.4c2.7-1,5.6-1.8,8.4-2.4
				c0.9-0.2,1.8-0.3,2.7-0.5c2.2-0.5-1.9,0.2-1.9,0.2c1.8,0,3.7-0.4,5.5-0.4c3.3-0.1,6.5,0,9.8,0.3c3.7,0.3-3.8-0.7,0.8,0.2
				c1.8,0.3,3.5,0.8,5.3,1.2c1.5,0.4,3,0.9,4.5,1.4c0.4,0.1,2.4,0.8,2.5,0.9c0.1,0.3-3.7-1.9-1.7-0.7c2.8,1.7,5.9,3,8.7,4.8
				c0.7,0.5,1.4,1,2.2,1.5c0.7,0.5,2.2,0.9,0.1,0c-2-0.8-0.7-0.6,0,0.1c0.7,0.6,1.3,1.1,2,1.7c2.5,2.2,4.6,4.6,6.8,7
				c3,3.3-1.4-2.3,0.5,0.6c0.8,1.3,1.7,2.5,2.5,3.8c0.8,1.3,1.6,2.7,2.3,4c0.3,0.6,0.6,1.2,0.9,1.8c1.9,3.6,0.4-0.3-0.1-0.5
				c1.2,0.4,2.5,7.6,2.9,8.9c0.3,1.3,0.6,2.7,0.9,4c0.8,3.8-0.1-1.2-0.1-1.3c0.5,0.5,0.3,2.8,0.3,3.4c0.2,3,0.2,6.1,0,9.1
				c-0.1,0.9-0.2,1.8-0.2,2.8c-0.1,2-1.2,1.7,0.2-1.2c-0.7,1.5-0.7,3.7-1.1,5.3c-0.7,2.8-1.8,5.5-2.6,8.3c-0.8,2.5,1.8-3.4,0.5-1.1
				c-0.3,0.5-0.6,1.2-0.8,1.8c-0.8,1.6-1.6,3.1-2.5,4.6c-0.8,1.3-1.6,2.6-2.5,3.9c-2.7,4.1,1.9-2-0.4,0.7c-2.2,2.5-4.3,4.9-6.8,7.1
				c-0.4,0.4-2.8,3-3.5,3c0,0,4.1-2.8,0.9-0.8c-0.6,0.4-1.1,0.7-1.6,1.1c-2.8,1.8-5.7,3.3-8.6,4.8c-3.1,1.6,3.6-1.2-0.7,0.3
				c-1.5,0.5-2.9,1-4.4,1.5c-1.5,0.4-3,0.8-4.6,1.2c-0.7,0.1-1.3,0.3-2,0.4c-4.4,1,3.2-0.2,0.6,0c-3.3,0.3-6.5,0.5-9.8,0.4
				c-1.6,0-3.2-0.2-4.9-0.3c-0.6,0-3-0.3-0.1,0c3.3,0.3-0.7-0.2-1.4-0.3c-3.5-0.7-6.9-1.8-10.3-3c-0.6-0.2-2.6-1.2-0.1,0
				c2.9,1.4-0.6-0.3-1.2-0.6c-1.6-0.8-3.1-1.6-4.6-2.5c-1.5-0.9-2.9-1.9-4.4-2.9c-2.4-1.5,0.3,0.8,0.9,0.8c-0.4,0-1.7-1.4-2-1.7
				c-2.6-2.3-5.1-4.7-7.4-7.4c0,0-1.7-1.7-1.7-2c0,0.4,2.4,3.4,0.8,0.9c-1-1.5-2-2.9-2.9-4.4c-1-1.7-1.9-3.5-2.8-5.2
				c-2.1-4.1,1,3.2-0.6-1.3c-1.2-3.4-2.2-6.8-2.9-10.4c-0.1-0.6-0.1-1.5-0.4-2c1.5,3.3,0.3,2.8,0.1,0.5c-0.2-2.1-0.3-4.2-0.3-6.3
				c-0.1-10.5-9.1-20.5-20-20C322.9,805.3,313.5,813.7,313.7,824.9z"/><polygon points="960.8 258 839.4 571 372.9 571 269.7 258"/><path d="M941.5,252.5c-13.7,35.3-27.3,70.6-41,105.9c-21.8,56.3-43.6,112.5-65.3,168.8c-5,12.9-10,25.9-15,38.8
				c6.4-4.9,12.9-9.8,19.3-14.7c-15.5,0-31.1,0-46.6,0c-37.1,0-74.3,0-111.4,0c-44.9,0-89.8,0-134.7,0c-38.8,0-77.6,0-116.4,0
				c-18.8,0-37.8-0.8-56.7,0c-0.3,0-0.5,0-0.8,0c6.4,4.9,12.9,9.8,19.3,14.7c-11.7-35.5-23.3-70.9-35-106.4
				c-18.5-56.1-37-112.2-55.4-168.4c-4.3-12.9-8.5-25.8-12.8-38.8c-6.4,8.4-12.9,16.9-19.3,25.3c6.1,0,12.3,0,18.4,0
				c16.8,0,33.6,0,50.4,0c24.7,0,49.4,0,74.2,0c30.3,0,60.6,0,91,0c33.1,0,66.1,0,99.2,0c33.5,0,67.1,0,100.6,0
				c31.1,0,62.2,0,93.3,0c26.4,0,52.8,0,79.3,0c18.9,0,37.8,0,56.7,0c9,0,18,0.2,26.9,0c0.4,0,0.8,0,1.2,0c10.5,0,20.5-9.2,20-20
				c-0.5-10.8-8.8-20-20-20c-6.1,0-12.3,0-18.4,0c-16.8,0-33.6,0-50.4,0c-24.7,0-49.4,0-74.2,0c-30.3,0-60.6,0-91,0
				c-33.1,0-66.1,0-99.2,0c-33.5,0-67.1,0-100.6,0c-31.1,0-62.2,0-93.3,0c-26.4,0-52.8,0-79.3,0c-18.9,0-37.8,0-56.7,0
				c-9,0-18-0.2-26.9,0c-0.4,0-0.8,0-1.2,0c-12.5,0-23.4,12.9-19.3,25.3c11.7,35.5,23.3,70.9,35,106.4
				c18.5,56.1,37,112.2,55.4,168.4c4.3,12.9,8.5,25.8,12.8,38.8c2.8,8.4,10.2,14.7,19.3,14.7c15.5,0,31.1,0,46.6,0
				c37.1,0,74.3,0,111.4,0c44.9,0,89.8,0,134.7,0c38.8,0,77.6,0,116.4,0c18.8,0,37.8,0.7,56.7,0c0.3,0,0.5,0,0.8,0
				c9.5,0,16.1-6.4,19.3-14.7c13.7-35.3,27.3-70.6,41-105.9c21.8-56.3,43.6-112.5,65.3-168.8c5-12.9,10-25.9,15-38.8
				c3.8-9.8-4.2-22.4-14-24.6C954.6,235.9,945.5,242,941.5,252.5z"/></svg>