<svg id="SvgjsSvg1001" width="288" height="288" xmlns="http://www.w3.org/2000/svg" version="1.1" xmlns:xlink="http://www.w3.org/1999/xlink" xmlns:svgjs="http://svgjs.com/svgjs"><defs id="SvgjsDefs1002"></defs><g id="SvgjsG1008" transform="matrix(1,0,0,1,0,0)"><svg xmlns="http://www.w3.org/2000/svg" viewBox="-49 141 512 512" width="288" height="288"><path fill="none" d="M21.7 287.3c-17.4 0-31.5 14.1-31.5 31.5s14.1 31.5 31.5 31.5 31.5-14.1 31.5-31.5-14.1-31.5-31.5-31.5zM206 182.3c-17.4 0-31.5 14.1-31.5 31.5s14.1 31.5 31.5 31.5 31.5-14.1 31.5-31.5-14.1-31.5-31.5-31.5zM391.7 287.3c-17.4 0-31.5 14.1-31.5 31.5s14.1 31.5 31.5 31.5 31.5-14.1 31.5-31.5-14.1-31.5-31.5-31.5z"></path><linearGradient id="a" x1="-32" x2="446.151" y1="389.65" y2="389.65" gradientUnits="userSpaceOnUse"><stop offset="0" stop-color="#69c5f3" class="stopColorFF884B svgShape"></stop><stop offset=".35" stop-color="#2fb4f7" class="stopColorFF634C svgShape"></stop><stop offset=".655" stop-color="#2da4df" class="stopColorFE4A4F svgShape"></stop><stop offset="1" stop-color="#46a9db" class="stopColorFE4840 svgShape"></stop></linearGradient><path fill="url(#a)" d="M277.5 213.8c0-39.4-32.1-71.5-71.5-71.5s-71.5 32.1-71.5 71.5c0 32.5 21.8 59.9 51.5 68.6V617c0 11 9 20 20 20s20-9 20-20V282.4c29.7-8.7 51.5-36.1 51.5-68.6zM206 245.3c-17.4 0-31.5-14.1-31.5-31.5s14.1-31.5 31.5-31.5 31.5 14.1 31.5 31.5-14.1 31.5-31.5 31.5z"></path><linearGradient id="b" x1="-32" x2="446.151" y1="450.15" y2="450.15" gradientUnits="userSpaceOnUse"><stop offset="0" stop-color="#69c5f3" class="stopColorFF884B svgShape"></stop><stop offset=".35" stop-color="#2fb4f7" class="stopColorFF634C svgShape"></stop><stop offset=".655" stop-color="#2da4df" class="stopColorFE4A4F svgShape"></stop><stop offset="1" stop-color="#46a9db" class="stopColorFE4840 svgShape"></stop></linearGradient><path fill="url(#b)" d="M391.7 247.3c-36.1 0-66 26.9-70.8 61.7H301c-15.1 0-27.1 6.9-33.8 19.3-5.5 10.3-6.2 22.4-6.2 30.7v274c0 11 9 20 20 20s20-9 20-20V359c0-5.3.4-8.3.8-10H327c11.4 24.4 36.1 41.3 64.8 41.3 39.4 0 71.5-32.1 71.5-71.5s-32.2-71.5-71.6-71.5zm0 103c-17.4 0-31.5-14.1-31.5-31.5s14.1-31.5 31.5-31.5 31.5 14.1 31.5 31.5-14.1 31.5-31.5 31.5z"></path><linearGradient id="c" x1="-32" x2="446.151" y1="450.15" y2="450.15" gradientUnits="userSpaceOnUse"><stop offset="0" stop-color="#69c5f3" class="stopColorFF884B svgShape"></stop><stop offset=".35" stop-color="#2fb4f7" class="stopColorFF634C svgShape"></stop><stop offset=".655" stop-color="#2da4df" class="stopColorFE4A4F svgShape"></stop><stop offset="1" stop-color="#46a9db" class="stopColorFE4840 svgShape"></stop></linearGradient><path fill="url(#c)" d="M101 309h-8.5c-4.8-34.8-34.7-61.7-70.8-61.7-39.4 0-71.5 32.1-71.5 71.5s32.1 71.5 71.5 71.5c28.6 0 53.4-16.9 64.8-41.3H101c5.5 0 10 4.5 10 10v274c0 11 9 20 20 20s20-9 20-20V359c0-27.6-22.4-50-50-50zm-79.3 41.3c-17.4 0-31.5-14.1-31.5-31.5s14.1-31.5 31.5-31.5 31.5 14.1 31.5 31.5-14.1 31.5-31.5 31.5z"></path></svg></g></svg>